<svg width="32" height="32" viewBox="0 0 32 32" fill="none" xmlns="http://www.w3.org/2000/svg">
<path d="M24.8 9.00003C22.88 9.00003 21.0667 9.7467 19.7733 11.04L16 14.3867L13.9733 16.1734H13.9867L10.4 19.36C9.54667 20.2134 8.41333 20.68 7.2 20.68C4.70667 20.68 2.68 18.6667 2.68 16.1734C2.68 13.68 4.70667 11.6667 7.2 11.6667C8.41333 11.6667 9.54667 12.1334 10.4533 13.04L11.96 14.3734L13.9733 12.5867L12.2933 11.1067C11.6256 10.4365 10.8317 9.90521 9.9575 9.54362C9.08328 9.18203 8.14605 8.99727 7.2 9.00003C3.22667 9.00003 0 12.2267 0 16.1734C0 20.12 3.22667 23.3467 7.2 23.3467C9.12 23.3467 10.9333 22.6 12.2267 21.3067L16 17.9734L16.0133 17.9867L18.0267 16.1734H18.0133L21.6 12.9867C22.4533 12.1334 23.5867 11.6667 24.8 11.6667C27.2933 11.6667 29.32 13.68 29.32 16.1734C29.32 18.6667 27.2933 20.68 24.8 20.68C23.6 20.68 22.4533 20.2134 21.5467 19.3067L20.0267 17.96L18.0133 19.7467L19.7067 21.24C20.3762 21.9069 21.1707 22.4351 22.0447 22.7943C22.9187 23.1535 23.8551 23.3367 24.8 23.3334C28.7733 23.3334 32 20.12 32 16.16C32 12.2 28.7733 9.00003 24.8 9.00003V9.00003Z" fill="#2E313C"/>
</svg>
