<svg width="32" height="32" viewBox="0 0 32 32" fill="none" xmlns="http://www.w3.org/2000/svg">
<path d="M6 26H1V10.8485C1 8.57576 2.5 5.92424 4.75 4.0303C7 2.13636 11.5 1 11.5 1H20.5C20.5 1 25 2.13636 27.25 4.0303C29.5 5.92424 31 8.57576 31 10.8485V26H26" stroke="#2E313B" stroke-width="2" stroke-linecap="round" stroke-linejoin="round"/>
<path d="M20.6154 1C20.6154 2.19347 20.1291 3.33807 19.2636 4.18198C18.398 5.02589 17.2241 5.5 16 5.5C14.7759 5.5 13.602 5.02589 12.7364 4.18198C11.8709 3.33807 11.3846 2.19347 11.3846 1M26 10.75V31H6V10.75H26Z" stroke="#2E313B" stroke-width="2" stroke-linecap="round" stroke-linejoin="round"/>
</svg>
