<svg width="40" height="42" viewBox="0 0 40 42" fill="none" xmlns="http://www.w3.org/2000/svg">
<path d="M29.0627 24.4966C29.0627 27.2737 28.2358 29.4023 26.5821 30.8822C24.9471 32.3622 22.6263 33.1022 19.6194 33.1022C16.6126 33.1022 14.2166 32.1338 12.4313 30.1971C10.6648 28.2421 9.78154 25.6202 9.78154 22.3314V19.2345C9.78154 16.0554 10.6742 13.4974 12.4595 11.5607C14.2636 9.60573 16.6502 8.62824 19.6194 8.62824C22.6826 8.62824 25.0223 9.38648 26.6385 10.903C28.2734 12.4012 29.0909 14.5115 29.0909 17.2339H24.6934C24.6934 15.4798 24.2612 14.2283 23.3968 13.4792C22.5323 12.7118 21.2732 12.3281 19.6194 12.3281C17.8905 12.3281 16.5375 12.9493 15.5603 14.1917C14.6018 15.4342 14.1226 17.1334 14.1226 19.2893V22.4959C14.1226 24.6519 14.6112 26.3419 15.5884 27.5661C16.5657 28.7902 17.9093 29.4023 19.6194 29.4023C21.292 29.4023 22.5511 29.0369 23.3968 28.306C24.2424 27.5569 24.6653 26.2871 24.6653 24.4966H29.0627ZM36.561 20.8515C36.561 17.8185 35.8562 15.0048 34.4468 12.4103C33.0373 9.79758 31.0453 7.71469 28.4708 6.16166C25.8962 4.59036 23.0773 3.80471 20.0141 3.80471C17.0261 3.80471 14.2448 4.55382 11.6702 6.05203C9.1144 7.55025 7.10359 9.61487 5.63777 12.2459C4.17195 14.8769 3.43904 17.7454 3.43904 20.8515C3.43904 23.9576 4.16256 26.8261 5.60958 29.4571C7.07541 32.0881 9.08621 34.171 11.642 35.7058C14.2166 37.2223 17.0073 37.9805 20.0141 37.9805C23.0209 37.9805 25.8116 37.204 28.3862 35.651C30.9796 34.0979 32.9904 32.0059 34.4186 29.3749C35.8468 26.7439 36.561 23.9027 36.561 20.8515ZM0 20.8515C0 17.1608 0.873855 13.735 2.62156 10.5741C4.38807 7.41322 6.82171 4.92837 9.92248 3.11955C13.042 1.29245 16.4059 0.378906 20.0141 0.378906C23.6223 0.378906 26.9767 1.29245 30.0775 3.11955C33.1783 4.92837 35.6025 7.41322 37.3502 10.5741C39.1167 13.735 40 17.1608 40 20.8515C40 24.5422 39.1167 27.968 37.3502 31.1289C35.6025 34.2898 33.1877 36.7929 30.1057 38.6383C27.0237 40.4654 23.6599 41.3789 20.0141 41.3789C16.3871 41.3789 13.0233 40.4654 9.92248 38.6383C6.8405 36.8112 4.41626 34.3172 2.64975 31.1563C0.883251 27.9954 0 24.5605 0 20.8515Z" fill="#07080C"/>
</svg>
