<svg width="32" height="32" viewBox="0 0 32 32" fill="none" xmlns="http://www.w3.org/2000/svg">
<path d="M0 5V7H19V22H12.844C12.398 20.281 10.852 19 9 19C7.148 19 5.602 20.281 5.156 22H4V17H2V24H5.156C5.602 25.719 7.148 27 9 27C10.852 27 12.398 25.719 12.844 24H21.156C21.602 25.719 23.148 27 25 27C26.852 27 28.398 25.719 28.844 24H32V15.844L31.937 15.687L29.937 9.687L29.72 9H21V5H0ZM1 9V11H10V9H1ZM21 11H28.281L30 16.125V22H28.844C28.398 20.281 26.852 19 25 19C23.148 19 21.602 20.281 21.156 22H21V11ZM2 13V15H8V13H2ZM9 21C10.117 21 11 21.883 11 23C11 24.117 10.117 25 9 25C7.883 25 7 24.117 7 23C7 21.883 7.883 21 9 21ZM25 21C26.117 21 27 21.883 27 23C27 24.117 26.117 25 25 25C23.883 25 23 24.117 23 23C23 21.883 23.883 21 25 21Z" fill="#2E313C"/>
</svg>
