<svg width="32" height="32" viewBox="0 0 32 32" fill="none" xmlns="http://www.w3.org/2000/svg">
<path d="M23.2823 7.48022C21.5278 4.5077 19.0371 2.03734 16.0503 0.307343L15.5189 0L14.9875 0.307343C11.9499 2.06041 9.42751 4.5826 7.67424 7.62013C5.92096 10.6577 4.99861 14.1034 5 17.6106C5 17.8391 5.00398 18.0711 5.01174 18.3004C5.11733 21.408 6.30578 24.0229 8.44862 25.8624C10.0884 27.2701 12.1918 28.1295 14.458 28.3345V32H16.5803V15.0212H14.4577V26.1986C10.872 25.7832 7.30322 23.2501 7.1327 18.2282C7.12567 18.0229 7.12209 17.8151 7.12209 17.6106C7.1284 14.5822 7.90181 11.6048 9.37015 8.95625C10.8385 6.30766 12.9539 4.07423 15.5189 2.46438C18.0839 4.07426 20.1992 6.30771 21.6675 8.95629C23.1358 11.6049 23.9092 14.5823 23.9154 17.6106C23.9154 17.8151 23.9119 18.0229 23.9048 18.2283C23.7685 22.2457 21.457 24.6701 18.7022 25.692V27.9382C20.1317 27.533 21.4574 26.825 22.5892 25.8623C24.732 24.0228 25.9205 21.4079 26.0261 18.3003C26.0338 18.0711 26.0378 17.839 26.0378 17.6105C26.0397 14.0484 25.0883 10.5506 23.2823 7.48022V7.48022Z" fill="#2E313C"/>
</svg>
