<svg width="16" height="18" viewBox="0 0 16 18" fill="none" xmlns="http://www.w3.org/2000/svg">
<path d="M5.27625 1.83431C5.27625 1.59131 5.30269 1.4445 5.71838 1.4445H11.3169C12.2923 1.4445 12.8346 2.27644 13.2244 3.83794L13.5377 5.08894H14.49C14.6627 1.54125 14.8123 0 14.8123 0C14.8123 0 12.4161 0.269437 10.9952 0.269437H3.83512L0 0.14625V1.1745L1.29206 1.4175C2.2005 1.59919 2.41706 1.78931 2.493 2.62181C2.493 2.62181 2.57513 5.07712 2.57513 9.10237C2.57513 13.1422 2.50763 15.5593 2.50763 15.5593C2.50763 16.2917 2.21456 16.5611 1.31513 16.74L0.0230626 16.9892V18L3.87 17.8768H10.2831C11.736 17.8768 15.0761 18 15.0761 18C15.1554 17.1208 15.6386 13.1394 15.7179 12.7029H14.8185L13.8544 14.8854C13.1012 16.5932 11.997 16.7164 10.7724 16.7164H7.09256C5.87081 16.7164 5.28188 16.2388 5.28188 15.1813V9.60019C5.28188 9.60019 7.99481 9.60019 8.87344 9.6705C9.55631 9.72056 9.96919 9.91687 10.1919 10.8686L10.485 12.1399H11.5425L11.475 8.93194L11.6184 5.70319H10.5756L10.2386 7.12125C10.0277 8.05275 9.87806 8.22263 8.92294 8.32219C7.67475 8.44819 5.31056 8.42456 5.31056 8.42456V1.83544H5.27513L5.27625 1.83431Z" fill="#20758F"/>
</svg>
