<svg width="21" height="21" viewBox="0 0 21 21" fill="none" xmlns="http://www.w3.org/2000/svg">
<path d="M14.0028 13.1874C15.2488 13.1874 15.2488 14.9683 14.0028 14.9683C12.7609 14.9683 12.7609 13.1874 14.0028 13.1874ZM19.0468 0.972468C20.2887 0.972468 20.2887 2.75336 19.0468 2.75336C17.8007 2.75336 17.8007 0.972468 19.0468 0.972468V0.972468ZM2.54434 2.71924H17.3141C17.5185 3.0968 17.8519 3.39632 18.2591 3.56811C18.6663 3.73991 19.1227 3.77368 19.5527 3.6638C19.9827 3.55393 20.3605 3.30702 20.6234 2.96403C20.8862 2.62103 21.0184 2.20256 20.9979 1.778C20.9775 1.35344 20.8057 0.948304 20.511 0.629781C20.2162 0.311259 19.8163 0.0984847 19.3776 0.0267442C18.9388 -0.0449963 18.4876 0.0286073 18.0986 0.235349C17.7097 0.44209 17.4065 0.769548 17.2392 1.16342H2.54502C1.12028 1.16342 0 2.19888 0 3.51848V18.5288C0 19.8687 1.16701 21 2.54502 21H18.2667C19.6523 21 20.776 19.8924 20.776 18.5288V9.62235C20.776 8.28241 19.6523 7.19248 18.2667 7.19248H8.9416C7.51685 7.19248 6.3141 8.30669 6.3141 9.62235V12.4216C6.3141 13.7202 7.49211 14.7767 8.9416 14.7767H12.1993C12.3445 15.1201 12.5938 15.4142 12.9152 15.6212C13.2367 15.8283 13.6157 15.9389 14.0035 15.9388C14.521 15.9388 15.0173 15.7425 15.3832 15.3932C15.7491 15.0438 15.9547 14.57 15.9547 14.0759C15.9547 13.5818 15.7491 13.108 15.3832 12.7586C15.0173 12.4092 14.521 12.213 14.0035 12.213C13.6461 12.2134 13.2958 12.3077 12.9909 12.4855C12.6859 12.6632 12.438 12.9177 12.2743 13.2209H8.9416C8.46187 13.2209 7.94297 12.9164 7.94297 12.421V9.62169C7.94297 9.16367 8.41926 8.74699 8.9416 8.74699H18.2667C18.7609 8.74699 19.1471 9.13349 19.1471 9.62169V18.5281C19.1471 19.0236 18.7423 19.4442 18.2667 19.4442H2.54502C2.05842 19.4442 1.62887 19.0137 1.62887 18.5281V3.51782C1.62887 3.06309 2.02612 2.72121 2.54502 2.72121L2.54434 2.71924Z"/>
</svg>
