<?xml version="1.0" standalone="no"?>
<!DOCTYPE svg PUBLIC "-//W3C//DTD SVG 20010904//EN"
 "http://www.w3.org/TR/2001/REC-SVG-20010904/DTD/svg10.dtd">
<svg version="1.0" xmlns="http://www.w3.org/2000/svg"
 width="1003.628049pt" height="1002.532459pt" viewBox="0 0 1003.628049 1002.532459"
 preserveAspectRatio="xMidYMid meet">
<metadata>
Created by Potrace Professional 1.1m
</metadata>
<g transform="translate(-112.121358,1134.181042) rotate(-360.00) scale(0.095238,-0.095238)"
fill="#000000" stroke="none">
<path d="M6372 11906 c-288 -24 -534 -219 -635 -505 -38 -105 -47 -299 -20
-411 22 -88 63 -185 111 -256 19 -28 774 -791 1678 -1696 l1644 -1646 -3680
-3 c-3523 -2 -3682 -3 -3743 -22 -218 -66 -382 -207 -478 -411 -197 -417 27
-904 478 -1041 61 -18 220 -19 3743 -22 l3680 -3 -1659 -1661 c-1641 -1643
-1661 -1663 -1704 -1748 -116 -228 -116 -485 1 -710 85 -165 247 -299 437
-362 70 -23 98 -27 222 -27 124 0 152 4 222 27 190 63 6 -113 2548 2427 1670
1669 2337 2342 2371 2393 87 130 140 332 125 475 -15 133 -62 265 -132 370
-36 54 -4509 4538 -4638 4649 -164 141 -349 201 -571 183z"/>
</g>
</svg>
