<?xml version="1.0" encoding="UTF-8" standalone="no"?><!DOCTYPE svg PUBLIC "-//W3C//DTD SVG 1.1//EN" "http://www.w3.org/Graphics/SVG/1.1/DTD/svg11.dtd"><svg width="100%" height="100%" viewBox="0 0 788 788" version="1.1" xmlns="http://www.w3.org/2000/svg" xmlns:xlink="http://www.w3.org/1999/xlink" xml:space="preserve" xmlns:serif="http://www.serif.com/" style="fill-rule:evenodd;clip-rule:evenodd;stroke-linejoin:round;stroke-miterlimit:2;"><g><rect x="0" y="0" width="787.953" height="787.953" style="fill:none;"/><path id="Straight-corrected" serif:id="Straight corrected" d="M634.503,270.247l-240.565,138.999l-0,302.679l192.474,-111.212l-0.205,-302.56l48.296,-27.906l-0,302.744l48.199,27.807l-288.769,166.851l-48.229,-27.823l-0.067,-358.486l240.529,-138.978l48.337,27.885Zm-384.943,55.666l-0,358.501l47.984,27.682l0,-358.5l-47.984,-27.683Zm-4.264,-164.34l-140.121,80.962l0,358.583l-47.926,-27.648l0,-358.583l336.808,-194.608l336.801,194.3l-0.041,358.477l-45.877,-26.478l-2.344,-304.113l-0.012,0.007l-96.473,-55.655l-192.265,111.091l-47.946,-27.66l192.874,-111.443l-48.278,-27.852l-289.178,167.088l-0,358.542l-47.761,-27.554l-0.243,-358.681l140.157,-80.983l-48.175,-27.792Zm29.587,149.709l48,-27.735l47.924,27.648l-48,27.734l-47.924,-27.647Zm18.237,-177.342l48.175,27.792l100.588,-58.12l-48.175,-27.792l-100.588,58.12Z"/></g></svg>