<?xml version="1.0" standalone="no"?>
<!DOCTYPE svg PUBLIC "-//W3C//DTD SVG 20010904//EN"
 "http://www.w3.org/TR/2001/REC-SVG-20010904/DTD/svg10.dtd">
<svg version="1.0" xmlns="http://www.w3.org/2000/svg"
 width="183.844179pt" height="185.723613pt" viewBox="0 0 183.844179 185.723613"
 preserveAspectRatio="xMidYMid meet">
<metadata>
Created by Potrace Professional 1.1m
</metadata>
<g transform="translate(-5.762026,185.760000) rotate(-360.00) scale(0.022857,-0.022857)"
fill="#000000" stroke="none">
<path d="M7413 8098 c260 -203 607 -550 814 -814 l63 -80 3 374 2 375 -86 87
-87 87 -373 0 -373 0 37 -29z"/>
<path d="M3806 7973 c-1274 -137 -2342 -815 -3004 -1905 -267 -441 -470 -1038
-524 -1542 -4 -32 -11 -96 -16 -142 -16 -132 -12 -544 6 -712 66 -609 242
-1141 542 -1641 172 -287 356 -521 602 -766 1040 -1037 2549 -1404 3964 -964
971 302 1820 1013 2299 1928 234 447 375 925 432 1462 18 172 15 579 -5 769
-99 912 -484 1723 -1126 2370 -661 667 -1511 1062 -2471 1149 -166 15 -533 12
-699 -6z m714 -488 c900 -77 1760 -540 2349 -1264 405 -498 660 -1103 745
-1769 22 -170 19 -652 -5 -829 -88 -658 -354 -1270 -770 -1772 -113 -135 -370
-387 -506 -495 -535 -425 -1170 -677 -1853 -738 -285 -25 -719 1 -993 59
-1116 237 -2033 991 -2479 2037 -199 468 -298 1039 -264 1531 35 516 142 914
360 1352 370 741 1007 1333 1774 1648 374 154 714 228 1175 256 83 5 321 -3
467 -16z"/>
<path d="M4090 5755 c-114 -52 -171 -173 -137 -291 17 -61 24 -68 565 -610
l547 -549 -1207 -2 -1207 -3 -57 -33 c-108 -60 -155 -189 -111 -303 21 -57 93
-123 150 -140 31 -9 351 -12 1235 -12 656 0 1193 -4 1193 -8 0 -4 -245 -254
-545 -554 -525 -526 -546 -548 -562 -603 -20 -70 -20 -69 0 -136 39 -134 169
-204 305 -165 62 18 64 20 806 760 409 408 762 765 784 792 55 69 71 143 47
226 -17 60 -24 66 -791 835 -554 554 -786 780 -818 795 -56 27 -141 27 -197 1z"/>
<path d="M8203 796 c-195 -241 -500 -549 -724 -730 l-75 -61 353 -3 c195 -1
364 0 377 3 12 3 54 40 92 83 l69 77 -2 370 -3 369 -87 -108z"/>
</g>
</svg>
