<?xml version="1.0" encoding="UTF-8" standalone="no"?><!DOCTYPE svg PUBLIC "-//W3C//DTD SVG 1.1//EN" "http://www.w3.org/Graphics/SVG/1.1/DTD/svg11.dtd"><svg width="100%" height="100%" viewBox="0 0 300 300" version="1.1" xmlns="http://www.w3.org/2000/svg" xmlns:xlink="http://www.w3.org/1999/xlink" xml:space="preserve" xmlns:serif="http://www.serif.com/" style="fill-rule:evenodd;clip-rule:evenodd;stroke-linejoin:round;stroke-miterlimit:2;"><path id="Straight-corrected" serif:id="Straight corrected" d="M246.518,100.339l-96.564,55.796l-0,121.497l77.26,-44.641l-0.082,-121.45l19.386,-11.202l0,121.524l19.348,11.162l-115.914,66.975l-19.36,-11.169l-0.027,-143.898l96.55,-55.787l19.403,11.193Zm-154.519,22.345l0,143.905l19.261,11.111l0,-143.904l-19.261,-11.112Zm-1.711,-65.967l-56.246,32.498l0,143.938l-19.238,-11.098l0,-143.938l135.197,-78.117l135.195,77.994l-0.017,143.895l-18.415,-10.628l-0.941,-122.074l-0.005,0.003l-38.725,-22.34l-77.177,44.593l-19.245,-11.103l77.421,-44.735l-19.379,-11.179l-116.079,67.07l0,143.921l-19.171,-11.06l-0.098,-143.977l56.26,-32.508l-19.337,-11.155Zm11.876,60.094l19.268,-11.133l19.237,11.098l-19.268,11.133l-19.237,-11.098Zm7.321,-71.186l19.337,11.155l40.377,-23.329l-19.338,-11.156l-40.376,23.33Z"/></svg>